HIERARCHY
ROOT Hips
{
	OFFSET 0.000000 0.000000 0.000000
	CHANNELS 6 Xposition Yposition Zposition Xrotation Yrotation Zrotation
	JOINT LeftUpLeg_virtual
	{
		OFFSET 0.000000 0.000000 0.000000
		CHANNELS 3 Xrotation Yrotation Zrotation
		JOINT LeftUpLeg
		{
			OFFSET 15.427100 -6.655098 0.678600
			CHANNELS 3 Xrotation Yrotation Zrotation
			JOINT LeftLeg
			{
				OFFSET 4.081073 -39.591068 13.024000
				CHANNELS 3 Xrotation Yrotation Zrotation
				JOINT LeftFoot
				{
					OFFSET -4.081074 -37.707932 -15.979700
					CHANNELS 3 Xrotation Yrotation Zrotation
					JOINT LeftToeBase
					{
						OFFSET 5.346399 -15.068900 20.645000
						CHANNELS 3 Xrotation Yrotation Zrotation
						JOINT LeftToe_End
						{
							OFFSET 2.754700 0.931300 11.300900
							CHANNELS 3 Xrotation Yrotation Zrotation
							End Site
							{
								OFFSET 0 0 0
							}
						}
					}
				}
			}
		}
	}
	JOINT RightUpLeg_virtual
	{
		OFFSET 0.000000 0.000000 0.000000
		CHANNELS 3 Xrotation Yrotation Zrotation
		JOINT RightUpLeg
		{
			OFFSET -15.569500 -6.655098 0.678600
			CHANNELS 3 Xrotation Yrotation Zrotation
			JOINT RightLeg
			{
				OFFSET -4.081825 -39.591045 13.023800
				CHANNELS 3 Xrotation Yrotation Zrotation
				JOINT RightFoot
				{
					OFFSET 4.081824 -37.707954 -15.979600
					CHANNELS 3 Xrotation Yrotation Zrotation
					JOINT RightToeBase
					{
						OFFSET -5.346400 -15.068900 20.645000
						CHANNELS 3 Xrotation Yrotation Zrotation
						JOINT RightToe_End
						{
							OFFSET -2.754700 0.931300 11.300900
							CHANNELS 3 Xrotation Yrotation Zrotation
							End Site
							{
								OFFSET 0 0 0
							}
						}
					}
				}
			}
		}
	}
	JOINT Spine_virtual
	{
		OFFSET 0.000000 0.000000 0.000000
		CHANNELS 3 Xrotation Yrotation Zrotation
		JOINT Spine
		{
			OFFSET -0.279200 12.230698 -2.892100
			CHANNELS 3 Xrotation Yrotation Zrotation
			JOINT Spine1
			{
				OFFSET -0.232667 10.192268 -1.242267
				CHANNELS 3 Xrotation Yrotation Zrotation
				JOINT Spine1_split
				{
					OFFSET -0.232667 10.192268 -1.242267
					CHANNELS 3 Xrotation Yrotation Zrotation
					JOINT Spine2
					{
						OFFSET -0.232667 10.192268 -1.242267
						CHANNELS 3 Xrotation Yrotation Zrotation
						JOINT Neck_virtual
						{
							OFFSET 0.000000 0.000000 0.000000
							CHANNELS 3 Xrotation Yrotation Zrotation
							JOINT Neck
							{
								OFFSET -0.418800 17.814194 8.416900
								CHANNELS 3 Xrotation Yrotation Zrotation
								JOINT Head
								{
									OFFSET 0.000000 7.031097 3.806800
									CHANNELS 3 Xrotation Yrotation Zrotation
									JOINT HeadTop_End
									{
										OFFSET 0.000000 24.646606 12.978600
										CHANNELS 3 Xrotation Yrotation Zrotation
										End Site
										{
											OFFSET 0 0 0
										}
									}
								}
							}
						}
						JOINT LeftShoulder_virtual
						{
							OFFSET 0.000000 0.000000 0.000000
							CHANNELS 3 Xrotation Yrotation Zrotation
							JOINT LeftShoulder
							{
								OFFSET 8.476499 7.247704 -3.868750
								CHANNELS 3 Xrotation Yrotation Zrotation
								JOINT LeftShoulder_split
								{
									OFFSET 8.476499 7.247704 -3.868750
									CHANNELS 3 Xrotation Yrotation Zrotation
									JOINT LeftArm
									{
										OFFSET 9.308998 -2.777710 0.208600
										CHANNELS 3 Xrotation Yrotation Zrotation
										JOINT LeftForeArm
										{
											OFFSET 29.972298 0.000000 0.000000
											CHANNELS 3 Xrotation Yrotation Zrotation
											JOINT LeftHand
											{
												OFFSET 26.026505 0.000000 0.000000
												CHANNELS 3 Xrotation Yrotation Zrotation
												End Site
												{
													OFFSET 0 0 0
												}
											}
										}
									}
								}
							}
						}
						JOINT RightShoulder_virtual
						{
							OFFSET 0.000000 0.000000 0.000000
							CHANNELS 3 Xrotation Yrotation Zrotation
							JOINT RightShoulder
							{
								OFFSET -7.570500 7.247704 -3.868750
								CHANNELS 3 Xrotation Yrotation Zrotation
								JOINT RightShoulder_split
								{
									OFFSET -7.570500 7.247704 -3.868750
									CHANNELS 3 Xrotation Yrotation Zrotation
									JOINT RightArm
									{
										OFFSET -9.308998 -2.777710 0.208500
										CHANNELS 3 Xrotation Yrotation Zrotation
										JOINT RightForeArm
										{
											OFFSET -29.972300 0.000000 0.000000
											CHANNELS 3 Xrotation Yrotation Zrotation
											JOINT RightHand
											{
												OFFSET -26.026505 0.000000 0.000000
												CHANNELS 3 Xrotation Yrotation Zrotation
												End Site
												{
													OFFSET 0 0 0
												}
											}
										}
									}
								}
							}
						}
					}
				}
			}
		}
	}
}
MOTION
Frames: 4
Frame Time: 0.03333333
1.412849 80.586327 -1.643097 0.000000 0.000000 0.000000 -5.023851 -63.329213 -3.792138 -29.639077 9.900469 34.541885 38.953593 -7.850016 -12.198361 -8.949974 -3.248530 -8.686167 -0.617035 0.565306 0.326907 0.000000 0.000000 0.000000 -5.832262 -61.678985 -3.909625 -21.053831 -10.197506 -26.328405 37.739483 4.795229 -6.779448 -16.668843 2.591518 20.222295 2.656714 0.328284 0.789273 0.000000 0.000000 0.000000 -4.992871 -61.173046 -3.431817 10.333742 2.380199 -1.169058 7.535799 0.386271 -5.117141 0.503806 -1.744217 1.121815 0.000000 0.000000 0.000000 7.937381 0.771474 -4.954051 -25.376473 23.229180 11.294858 -3.544107 26.377593 -3.143235 0.000000 0.000000 0.000000 9.047859 0.452705 -4.639422 -5.688418 -10.022998 -1.628817 -2.285381 -1.375313 -2.366540 -18.058667 3.610879 -34.931315 4.868417 -49.508708 2.798662 0.000000 0.000000 0.000000 8.471782 0.440705 -4.928521 -4.102259 11.789856 2.016074 1.833218 0.983211 0.864144 -38.833894 -25.176530 32.434407 -157.220054 65.003744 157.763286 0.000000 0.000000 0.000000 
1.357785 80.522888 -1.723522 0.000000 0.000000 0.000000 -4.705504 -63.213613 -3.088948 -29.361597 9.524376 33.780063 38.580330 -7.550727 -12.173751 -8.772293 -3.049925 -8.924592 -0.368558 0.567114 0.221336 0.000000 0.000000 0.000000 -5.578764 -61.811743 -3.242935 -21.566404 -9.800311 -27.240558 38.072338 4.971509 -6.749837 -16.706909 3.029090 20.430919 2.608551 0.377412 0.813693 0.000000 0.000000 0.000000 -4.205990 -60.941905 -2.501552 10.203395 2.450878 -0.935950 8.024476 0.488306 -4.995554 0.465299 -1.702944 1.186727 0.000000 0.000000 0.000000 8.269726 0.904933 -4.886486 -23.399446 23.317595 11.679192 -2.769094 25.821923 -2.939954 0.000000 0.000000 0.000000 9.435894 0.501924 -4.540481 -5.818595 -10.623376 -2.372531 -2.142914 -1.146965 -2.369237 -16.564997 4.922149 -34.911658 5.242034 -49.867450 2.855602 0.000000 0.000000 0.000000 8.833205 0.559414 -4.740486 -4.173606 11.901855 2.676784 1.440965 0.828793 0.758014 -39.528087 -24.691492 31.045556 -157.428538 64.217630 158.230348 0.000000 0.000000 0.000000 
1.270485 80.632874 -1.742306 0.000000 0.000000 0.000000 -4.055263 -63.148855 -2.058187 -28.987572 9.148759 32.802537 37.917624 -7.279073 -12.005562 -8.439839 -2.941567 -9.403477 -0.110991 0.566113 0.145565 0.000000 0.000000 0.000000 -5.105218 -61.879629 -2.338749 -21.911201 -9.581935 -28.025188 38.080880 4.998898 -6.636758 -16.637731 3.322432 20.617146 2.477274 0.408012 0.824247 0.000000 0.000000 0.000000 -3.338488 -60.654054 -1.470334 10.104285 2.460135 -0.847367 8.441623 0.550301 -4.875348 0.487982 -1.959085 1.231644 0.000000 0.000000 0.000000 8.627002 0.994138 -4.788651 -21.949904 23.433069 11.749356 -2.135538 25.066451 -2.939528 0.000000 0.000000 0.000000 9.785796 0.512070 -4.400156 -5.933142 -11.090695 -2.906024 -2.160531 -0.726608 -2.398787 -15.319853 5.679190 -35.002004 5.728841 -49.007666 3.037508 0.000000 0.000000 0.000000 9.083620 0.627904 -4.546010 -4.236843 11.591853 3.215933 0.921121 0.674596 0.858934 -40.045027 -23.472522 30.358593 -156.950220 64.266493 157.888155 0.000000 0.000000 0.000000 
1.181910 80.822853 -1.712646 0.000000 0.000000 0.000000 -3.362032 -63.055637 -1.019715 -28.648330 8.791055 31.786676 37.284305 -7.068410 -11.717277 -8.136322 -2.914522 -10.025463 -0.007287 0.564333 0.143796 0.000000 0.000000 0.000000 -4.565455 -61.894792 -1.409041 -22.116602 -9.441838 -28.562569 38.022038 4.850831 -6.504362 -16.619553 3.408400 20.727406 2.339460 0.416943 0.819148 0.000000 0.000000 0.000000 -2.659292 -60.322339 -0.604653 10.091155 2.397863 -0.897616 8.781578 0.539226 -4.793113 0.592578 -2.342162 1.182458 0.000000 0.000000 0.000000 9.008327 1.006786 -4.718397 -21.125502 23.574630 11.604900 -1.590234 24.369531 -3.161950 0.000000 0.000000 0.000000 10.109215 0.452011 -4.273929 -6.010916 -11.418908 -3.212649 -2.246122 -0.242967 -2.547122 -14.611831 5.879724 -34.928829 6.024518 -47.253209 3.147857 0.000000 0.000000 0.000000 9.275705 0.605580 -4.403825 -4.279537 11.005024 3.553929 0.498542 0.556315 1.055628 -40.488812 -22.097643 30.382935 -156.658995 64.510843 157.606533 0.000000 0.000000 0.000000 
